<svg version="1.1" xmlns="http://www.w3.org/2000/svg" xmlns:xlink="http://www.w3.org/1999/xlink" class="chart" viewBox="0 0 600 600" role="img"><style type="text/css"><![CDATA[
  text {fill: black}
  line {stroke: black}
]]></style>
<text x="280.0" y="20" text-anchor="middle" class="exc-title">Virus propagation</text><text x="280.0" y="580" text-anchor="middle" class="exc-subtitle">healthy: 10, incubating: 0, sick: 0, inmune: 0, dead: 0</text><g transform="translate(70,40)"><g transform="translate(0, 470)" fill="none" font-size="10" text-anchor="middle"><path class="exc-domain" stroke="#000" d="M0.5, 6V0.5H420.5V6"></path><g class="exc-tick" opacity="1" transform="translate(0.5,0)"><line y2="6"></line><text y="9" dy="-0.1em" dx="-0.9em" text-anchor="end" transform="rotate(-45)">0.80</text></g><g class="exc-tick" opacity="1" transform="translate(38.68181818181819,0)"><line y2="6"></line><text y="9" dy="-0.1em" dx="-0.9em" text-anchor="end" transform="rotate(-45)">1.20</text></g><g class="exc-tick" opacity="1" transform="translate(76.86363636363636,0)"><line y2="6"></line><text y="9" dy="-0.1em" dx="-0.9em" text-anchor="end" transform="rotate(-45)">1.60</text></g><g class="exc-tick" opacity="1" transform="translate(115.04545454545453,0)"><line y2="6"></line><text y="9" dy="-0.1em" dx="-0.9em" text-anchor="end" transform="rotate(-45)">2.00</text></g><g class="exc-tick" opacity="1" transform="translate(153.22727272727275,0)"><line y2="6"></line><text y="9" dy="-0.1em" dx="-0.9em" text-anchor="end" transform="rotate(-45)">2.40</text></g><g class="exc-tick" opacity="1" transform="translate(191.40909090909088,0)"><line y2="6"></line><text y="9" dy="-0.1em" dx="-0.9em" text-anchor="end" transform="rotate(-45)">2.80</text></g><g class="exc-tick" opacity="1" transform="translate(229.59090909090912,0)"><line y2="6"></line><text y="9" dy="-0.1em" dx="-0.9em" text-anchor="end" transform="rotate(-45)">3.20</text></g><g class="exc-tick" opacity="1" transform="translate(267.7727272727273,0)"><line y2="6"></line><text y="9" dy="-0.1em" dx="-0.9em" text-anchor="end" transform="rotate(-45)">3.60</text></g><g class="exc-tick" opacity="1" transform="translate(305.95454545454544,0)"><line y2="6"></line><text y="9" dy="-0.1em" dx="-0.9em" text-anchor="end" transform="rotate(-45)">4.00</text></g><g class="exc-tick" opacity="1" transform="translate(344.1363636363637,0)"><line y2="6"></line><text y="9" dy="-0.1em" dx="-0.9em" text-anchor="end" transform="rotate(-45)">4.40</text></g><g class="exc-tick" opacity="1" transform="translate(382.3181818181818,0)"><line y2="6"></line><text y="9" dy="-0.1em" dx="-0.9em" text-anchor="end" transform="rotate(-45)">4.80</text></g><g class="exc-tick" opacity="1" transform="translate(420.5,0)"><line y2="6"></line><text y="9" dy="-0.1em" dx="-0.9em" text-anchor="end" transform="rotate(-45)">5.20</text></g></g><g   fill="none" font-size="10" text-anchor="end"><path class="exc-domain" stroke="#000" d="M-6,470.5H0.5V0.5H-6"></path><g class="exc-tick" opacity="1" transform="translate(0, 470.5)"><line x2="-6"></line><text x="-9" dy="0.32em">0.80</text></g><g class="exc-tick" opacity="1" transform="translate(0, 427.77272727272725)"><line x2="-6"></line><text x="-9" dy="0.32em">1.20</text></g><g class="exc-tick" opacity="1" transform="translate(0, 385.04545454545456)"><line x2="-6"></line><text x="-9" dy="0.32em">1.60</text></g><g class="exc-tick" opacity="1" transform="translate(0, 342.31818181818187)"><line x2="-6"></line><text x="-9" dy="0.32em">2.00</text></g><g class="exc-tick" opacity="1" transform="translate(0, 299.59090909090907)"><line x2="-6"></line><text x="-9" dy="0.32em">2.40</text></g><g class="exc-tick" opacity="1" transform="translate(0, 256.8636363636364)"><line x2="-6"></line><text x="-9" dy="0.32em">2.80</text></g><g class="exc-tick" opacity="1" transform="translate(0, 214.13636363636363)"><line x2="-6"></line><text x="-9" dy="0.32em">3.20</text></g><g class="exc-tick" opacity="1" transform="translate(0, 171.40909090909088)"><line x2="-6"></line><text x="-9" dy="0.32em">3.60</text></g><g class="exc-tick" opacity="1" transform="translate(0, 128.6818181818182)"><line x2="-6"></line><text x="-9" dy="0.32em">4.00</text></g><g class="exc-tick" opacity="1" transform="translate(0, 85.95454545454544)"><line x2="-6"></line><text x="-9" dy="0.32em">4.40</text></g><g class="exc-tick" opacity="1" transform="translate(0, 43.22727272727275)"><line x2="-6"></line><text x="-9" dy="0.32em">4.80</text></g><g class="exc-tick" opacity="1" transform="translate(0, 0.5)"><line x2="-6"></line><text x="-9" dy="0.32em">5.20</text></g></g><g><circle cx="22.453663285536823" cy="390.9180979146389" r="3" style="fill:#43db8c;"></circle><circle cx="390.31964751486714" cy="127.60043505916997" r="3" style="fill:#43db8c;"></circle><circle cx="319.22309276092346" cy="435.2403218335204" r="3" style="fill:#43db8c;"></circle><circle cx="22.218540364221663" cy="127.62645088946039" r="3" style="fill:#43db8c;"></circle><circle cx="321.5057180709401" cy="369.3725773085614" r="3" style="fill:#43db8c;"></circle><circle cx="108.26736778298917" cy="207.74809457191014" r="3" style="fill:#43db8c;"></circle><circle cx="315.2936156818843" cy="28.271199549393486" r="3" style="fill:#43db8c;"></circle><circle cx="124.51263388899069" cy="186.2285276338344" r="3" style="fill:#43db8c;"></circle><circle cx="79.88238428229567" cy="23.129175757869973" r="3" style="fill:#43db8c;"></circle><circle cx="358.2771044742153" cy="339.6533047683324" r="3" style="fill:#43db8c;"></circle></g></g><g transform="translate(500, 50)"><g class="exc-legend"><rect x="0" y="0" width="18" height="18" style="fill:#43db8c;"></rect><text x="23" y="9.0" dominant-baseline="central" text-anchor="start">healthy</text></g></g></svg>