<svg version="1.1" xmlns="http://www.w3.org/2000/svg" xmlns:xlink="http://www.w3.org/1999/xlink" class="chart" viewBox="0 0 600 600" role="img"><style type="text/css"><![CDATA[
  text {fill: black}
  line {stroke: black}
]]></style>
<text x="280.0" y="20" text-anchor="middle" class="exc-title">Virus propagation</text><text x="280.0" y="580" text-anchor="middle" class="exc-subtitle">healthy: 0, incubating: 0, sick: 0, inmune: 2, dead: 3</text><g transform="translate(70,40)"><g transform="translate(0, 470)" fill="none" font-size="10" text-anchor="middle"><path class="exc-domain" stroke="#000" d="M0.5, 6V0.5H420.5V6"></path><g class="exc-tick" opacity="1" transform="translate(0.5,0)"><line y2="6"></line><text y="9" dy="-0.1em" dx="-0.9em" text-anchor="end" transform="rotate(-45)">0.80</text></g><g class="exc-tick" opacity="1" transform="translate(38.68181818181819,0)"><line y2="6"></line><text y="9" dy="-0.1em" dx="-0.9em" text-anchor="end" transform="rotate(-45)">1.20</text></g><g class="exc-tick" opacity="1" transform="translate(76.86363636363636,0)"><line y2="6"></line><text y="9" dy="-0.1em" dx="-0.9em" text-anchor="end" transform="rotate(-45)">1.60</text></g><g class="exc-tick" opacity="1" transform="translate(115.04545454545453,0)"><line y2="6"></line><text y="9" dy="-0.1em" dx="-0.9em" text-anchor="end" transform="rotate(-45)">2.00</text></g><g class="exc-tick" opacity="1" transform="translate(153.22727272727275,0)"><line y2="6"></line><text y="9" dy="-0.1em" dx="-0.9em" text-anchor="end" transform="rotate(-45)">2.40</text></g><g class="exc-tick" opacity="1" transform="translate(191.40909090909088,0)"><line y2="6"></line><text y="9" dy="-0.1em" dx="-0.9em" text-anchor="end" transform="rotate(-45)">2.80</text></g><g class="exc-tick" opacity="1" transform="translate(229.59090909090912,0)"><line y2="6"></line><text y="9" dy="-0.1em" dx="-0.9em" text-anchor="end" transform="rotate(-45)">3.20</text></g><g class="exc-tick" opacity="1" transform="translate(267.7727272727273,0)"><line y2="6"></line><text y="9" dy="-0.1em" dx="-0.9em" text-anchor="end" transform="rotate(-45)">3.60</text></g><g class="exc-tick" opacity="1" transform="translate(305.95454545454544,0)"><line y2="6"></line><text y="9" dy="-0.1em" dx="-0.9em" text-anchor="end" transform="rotate(-45)">4.00</text></g><g class="exc-tick" opacity="1" transform="translate(344.1363636363637,0)"><line y2="6"></line><text y="9" dy="-0.1em" dx="-0.9em" text-anchor="end" transform="rotate(-45)">4.40</text></g><g class="exc-tick" opacity="1" transform="translate(382.3181818181818,0)"><line y2="6"></line><text y="9" dy="-0.1em" dx="-0.9em" text-anchor="end" transform="rotate(-45)">4.80</text></g><g class="exc-tick" opacity="1" transform="translate(420.5,0)"><line y2="6"></line><text y="9" dy="-0.1em" dx="-0.9em" text-anchor="end" transform="rotate(-45)">5.20</text></g></g><g   fill="none" font-size="10" text-anchor="end"><path class="exc-domain" stroke="#000" d="M-6,470.5H0.5V0.5H-6"></path><g class="exc-tick" opacity="1" transform="translate(0, 470.5)"><line x2="-6"></line><text x="-9" dy="0.32em">0.80</text></g><g class="exc-tick" opacity="1" transform="translate(0, 427.77272727272725)"><line x2="-6"></line><text x="-9" dy="0.32em">1.20</text></g><g class="exc-tick" opacity="1" transform="translate(0, 385.04545454545456)"><line x2="-6"></line><text x="-9" dy="0.32em">1.60</text></g><g class="exc-tick" opacity="1" transform="translate(0, 342.31818181818187)"><line x2="-6"></line><text x="-9" dy="0.32em">2.00</text></g><g class="exc-tick" opacity="1" transform="translate(0, 299.59090909090907)"><line x2="-6"></line><text x="-9" dy="0.32em">2.40</text></g><g class="exc-tick" opacity="1" transform="translate(0, 256.8636363636364)"><line x2="-6"></line><text x="-9" dy="0.32em">2.80</text></g><g class="exc-tick" opacity="1" transform="translate(0, 214.13636363636363)"><line x2="-6"></line><text x="-9" dy="0.32em">3.20</text></g><g class="exc-tick" opacity="1" transform="translate(0, 171.40909090909088)"><line x2="-6"></line><text x="-9" dy="0.32em">3.60</text></g><g class="exc-tick" opacity="1" transform="translate(0, 128.6818181818182)"><line x2="-6"></line><text x="-9" dy="0.32em">4.00</text></g><g class="exc-tick" opacity="1" transform="translate(0, 85.95454545454544)"><line x2="-6"></line><text x="-9" dy="0.32em">4.40</text></g><g class="exc-tick" opacity="1" transform="translate(0, 43.22727272727275)"><line x2="-6"></line><text x="-9" dy="0.32em">4.80</text></g><g class="exc-tick" opacity="1" transform="translate(0, 0.5)"><line x2="-6"></line><text x="-9" dy="0.32em">5.20</text></g></g><g><circle cx="19.090909090909086" cy="448.6363636363636" r="3" style="fill:#286268;"></circle><circle cx="114.54545454545453" cy="341.81818181818187" r="3" style="fill:#120a1f;"></circle><circle cx="210.0" cy="235.0" r="3" style="fill:#120a1f;"></circle><circle cx="305.45454545454544" cy="128.1818181818182" r="3" style="fill:#120a1f;"></circle><circle cx="400.9090909090909" cy="21.363636363636374" r="3" style="fill:#286268;"></circle></g></g><g transform="translate(500, 50)"><g class="exc-legend"><rect x="0" y="0" width="18" height="18" style="fill:#286268;"></rect><text x="23" y="9.0" dominant-baseline="central" text-anchor="start">inmune</text><rect x="0" y="21" width="18" height="18" style="fill:#120a1f;"></rect><text x="23" y="30.0" dominant-baseline="central" text-anchor="start">dead</text></g></g></svg>