<svg version="1.1" xmlns="http://www.w3.org/2000/svg" xmlns:xlink="http://www.w3.org/1999/xlink" class="chart" viewBox="0 0 400 400" role="img"><style type="text/css"><![CDATA[
  text {fill: black}
  line {stroke: black}
]]></style>
<g transform="translate(70,10)"><g transform="translate(0, 320)" fill="none" font-size="10" text-anchor="middle"><path class="exc-domain" stroke="#000" d="M0.5, 6V0.5H320.5V6"></path><g class="exc-tick" opacity="1" transform="translate(0.5,0)"><line y2="6"></line><text y="9" dy="-0.1em" dx="-0.9em" text-anchor="end" transform="rotate(-45)">0.80</text></g><g class="exc-tick" opacity="1" transform="translate(40.50000000000001,0)"><line y2="6"></line><text y="9" dy="-0.1em" dx="-0.9em" text-anchor="end" transform="rotate(-45)">1.20</text></g><g class="exc-tick" opacity="1" transform="translate(80.5,0)"><line y2="6"></line><text y="9" dy="-0.1em" dx="-0.9em" text-anchor="end" transform="rotate(-45)">1.60</text></g><g class="exc-tick" opacity="1" transform="translate(120.49999999999999,0)"><line y2="6"></line><text y="9" dy="-0.1em" dx="-0.9em" text-anchor="end" transform="rotate(-45)">2.00</text></g><g class="exc-tick" opacity="1" transform="translate(160.50000000000003,0)"><line y2="6"></line><text y="9" dy="-0.1em" dx="-0.9em" text-anchor="end" transform="rotate(-45)">2.40</text></g><g class="exc-tick" opacity="1" transform="translate(200.49999999999997,0)"><line y2="6"></line><text y="9" dy="-0.1em" dx="-0.9em" text-anchor="end" transform="rotate(-45)">2.80</text></g><g class="exc-tick" opacity="1" transform="translate(240.50000000000003,0)"><line y2="6"></line><text y="9" dy="-0.1em" dx="-0.9em" text-anchor="end" transform="rotate(-45)">3.20</text></g><g class="exc-tick" opacity="1" transform="translate(280.50000000000006,0)"><line y2="6"></line><text y="9" dy="-0.1em" dx="-0.9em" text-anchor="end" transform="rotate(-45)">3.60</text></g><g class="exc-tick" opacity="1" transform="translate(320.5,0)"><line y2="6"></line><text y="9" dy="-0.1em" dx="-0.9em" text-anchor="end" transform="rotate(-45)">4.00</text></g></g><g   fill="none" font-size="10" text-anchor="end"><path class="exc-domain" stroke="#000" d="M-6,320.5H0.5V0.5H-6"></path><g class="exc-tick" opacity="1" transform="translate(0, 320.5)"><line x2="-6"></line><text x="-9" dy="0.32em">0.80</text></g><g class="exc-tick" opacity="1" transform="translate(0, 280.5)"><line x2="-6"></line><text x="-9" dy="0.32em">1.20</text></g><g class="exc-tick" opacity="1" transform="translate(0, 240.5)"><line x2="-6"></line><text x="-9" dy="0.32em">1.60</text></g><g class="exc-tick" opacity="1" transform="translate(0, 200.5)"><line x2="-6"></line><text x="-9" dy="0.32em">2.00</text></g><g class="exc-tick" opacity="1" transform="translate(0, 160.49999999999997)"><line x2="-6"></line><text x="-9" dy="0.32em">2.40</text></g><g class="exc-tick" opacity="1" transform="translate(0, 120.50000000000003)"><line x2="-6"></line><text x="-9" dy="0.32em">2.80</text></g><g class="exc-tick" opacity="1" transform="translate(0, 80.49999999999997)"><line x2="-6"></line><text x="-9" dy="0.32em">3.20</text></g><g class="exc-tick" opacity="1" transform="translate(0, 40.49999999999994)"><line x2="-6"></line><text x="-9" dy="0.32em">3.60</text></g><g class="exc-tick" opacity="1" transform="translate(0, 0.5)"><line x2="-6"></line><text x="-9" dy="0.32em">4.00</text></g></g><g><circle cx="19.999999999999996" cy="300.0" r="3" style="fill:#1f77b4;"></circle><circle cx="119.99999999999999" cy="200.0" r="3" style="fill:#1f77b4;"></circle><circle cx="220.0" cy="100.0" r="3" style="fill:#1f77b4;"></circle><circle cx="320.0" cy="0.0" r="3" style="fill:#1f77b4;"></circle></g></g></svg>